HIERARCHY
ROOT root
{
	OFFSET 0.000000 0.000000 0.000000
	CHANNELS 6 Xposition Yposition Zposition Zrotation Yrotation Xrotation
	JOINT lhip
	{
		OFFSET 0.058581 -0.082280 -0.017664
		CHANNELS 3 Zrotation Yrotation Xrotation
		JOINT lknee
		{
			OFFSET 0.043451 -0.386469 0.008037
			CHANNELS 3 Zrotation Yrotation Xrotation
			JOINT lankle
			{
				OFFSET -0.014790 -0.426874 -0.037428
				CHANNELS 3 Zrotation Yrotation Xrotation
				JOINT ltoe
				{
					OFFSET 0.041054 -0.060286 0.122042
					CHANNELS 3 Zrotation Yrotation Xrotation
					End Site
					{
						OFFSET 0.000000 0.000000 0.000000
					}
				}
			}
		}
	}
	JOINT rhip
	{
		OFFSET -0.060310 -0.090513 -0.013543
		CHANNELS 3 Zrotation Yrotation Xrotation
		JOINT rknee
		{
			OFFSET -0.043257 -0.383688 -0.004843
			CHANNELS 3 Zrotation Yrotation Xrotation
			JOINT rankle
			{
				OFFSET 0.019056 -0.420046 -0.034562
				CHANNELS 3 Zrotation Yrotation Xrotation
				JOINT rtoe
				{
					OFFSET -0.034840 -0.062106 0.130323
					CHANNELS 3 Zrotation Yrotation Xrotation
					End Site
					{
						OFFSET 0.000000 0.000000 0.000000
					}
				}
			}
		}
	}
	JOINT lowerback
	{
		OFFSET 0.004439 0.124404 -0.038385
		CHANNELS 3 Zrotation Yrotation Xrotation
		JOINT upperback
		{
			OFFSET 0.004488 0.137956 0.026820
			CHANNELS 3 Zrotation Yrotation Xrotation
			JOINT chest
			{
				OFFSET -0.002265 0.056032 0.002855
				CHANNELS 3 Zrotation Yrotation Xrotation
				JOINT lowerneck
				{
					OFFSET -0.013390 0.211636 -0.033468
					CHANNELS 3 Zrotation Yrotation Xrotation
					JOINT upperneck
					{
						OFFSET 0.010113 0.088937 0.050410
						CHANNELS 3 Zrotation Yrotation Xrotation
						End Site
						{
							OFFSET 0.000000 0.000000 0.000000
						}
					}
				}
				JOINT lclavicle
				{
					OFFSET 0.071702 0.114000 -0.018898
					CHANNELS 3 Zrotation Yrotation Xrotation
					JOINT lshoulder
					{
						OFFSET 0.122921 0.045205 -0.019046
						CHANNELS 3 Zrotation Yrotation Xrotation
						JOINT lelbow
						{
							OFFSET 0.255332 -0.015649 -0.022946
							CHANNELS 3 Zrotation Yrotation Xrotation
							JOINT lwrist
							{
								OFFSET 0.265709 0.012698 -0.007375
								CHANNELS 3 Zrotation Yrotation Xrotation
								End Site
								{
									OFFSET 0.000000 0.000000 0.000000
								}
							}
						}
					}
				}
				JOINT rclavicle
				{
					OFFSET -0.082954 0.112472 -0.023707
					CHANNELS 3 Zrotation Yrotation Xrotation
					JOINT rshoulder
					{
						OFFSET -0.113228 0.046853 -0.008472
						CHANNELS 3 Zrotation Yrotation Xrotation
						JOINT relbow
						{
							OFFSET -0.260127 -0.014369 -0.031269
							CHANNELS 3 Zrotation Yrotation Xrotation
							JOINT rwrist
							{
								OFFSET -0.269108 0.006794 -0.006027
								CHANNELS 3 Zrotation Yrotation Xrotation
								End Site
								{
									OFFSET 0.000000 0.000000 0.000000
								}
							}
						}
					}
				}
			}
		}
	}
}
MOTION
Frames: 17
Frame Time: 0.033333
0.219015 0.246558 1.021807 7.008199 -3.840443 88.606192 -2.982833 -7.171025 -19.199930 -4.428931 -6.337164 27.228208 2.249421 9.572213 -24.097620 0.000000 -0.000000 0.000000 3.209912 -8.271120 1.375613 0.771704 1.738042 11.201498 5.336264 -13.944348 -12.950720 0.000000 -0.000000 0.000000 4.509000 7.709994 13.763521 -14.828524 4.886479 -8.465934 -7.956636 4.980641 2.527123 -6.039233 -19.533868 -7.193718 -4.318109 -6.585640 -7.058426 -14.424621 7.544401 -7.757211 -45.902785 10.416562 6.521930 6.594096 -39.356473 22.502392 -3.723259 -15.613424 6.280400 -18.581135 6.155193 -20.566860 -17.137450 15.210761 -32.087398 -58.607969 40.780409 -50.773761 -16.772353 12.635066 7.451211 
0.218856 0.224537 1.021020 5.321294 -3.946996 88.924591 -3.408376 -6.715645 -20.154756 -3.892226 -6.598244 19.478616 2.134844 10.873664 -22.020299 0.000000 -0.000000 0.000000 2.873173 -8.443015 2.372654 1.099802 3.444204 11.516166 5.782820 -13.723013 -13.438987 0.000000 -0.000000 0.000000 4.942875 7.114397 13.584440 -16.173610 5.843905 -9.075468 -8.023026 5.392984 2.848540 -5.470872 -21.794686 -7.948639 -3.113841 -5.824022 -7.456424 -13.999810 7.999405 -7.961055 -45.567990 9.220193 9.211796 8.262836 -42.935584 22.149025 -3.657086 -15.748537 3.535164 -21.295633 7.534201 -20.597477 -19.587061 15.361016 -32.529557 -34.503741 30.273612 -35.787977 -8.395075 7.930603 2.192460 
0.218966 0.200908 1.020165 3.524268 -3.924352 89.331550 -3.693823 -5.979936 -20.700343 -3.335427 -7.645360 11.776152 1.996115 11.777784 -20.521953 0.000000 -0.000000 0.000000 2.545210 -8.460729 3.227675 1.529096 5.268934 12.220914 6.305399 -13.395029 -13.901462 0.000000 -0.000000 0.000000 5.197882 6.549992 12.975416 -17.337273 6.816622 -9.348119 -8.082630 5.695894 2.822211 -4.778273 -23.806083 -8.321890 -2.041792 -5.122543 -8.092486 -13.402479 8.670230 -8.025008 -45.338788 8.109575 11.301022 10.416549 -45.722713 21.163938 -3.682683 -15.809482 0.543375 -24.019368 8.609679 -20.624024 -21.134800 16.005381 -32.630593 -17.634888 17.538024 -28.191624 1.158679 4.553366 -5.172622 
0.219277 0.175470 1.018534 1.834223 -3.834115 89.750334 -3.647105 -5.667056 -21.215506 -2.724555 -8.147089 5.681500 1.679381 12.038222 -19.900945 0.000000 -0.000000 0.000000 2.227934 -8.478832 4.174424 1.826141 6.628472 12.936167 6.826279 -12.763184 -14.245914 0.000000 -0.000000 0.000000 5.139392 6.364020 11.860012 -17.986259 7.327056 -8.934695 -8.165513 5.919212 2.507240 -4.146039 -25.171197 -8.403975 -0.762312 -5.098194 -8.781372 -12.599716 9.113350 -7.902878 -45.521034 7.328203 11.986178 12.651168 -47.693166 19.294528 -4.620661 -15.515060 -1.373972 -25.735662 9.733600 -20.188906 -20.699055 17.243853 -32.574436 -9.518483 7.284836 -23.767010 9.211755 2.360351 -5.021377 
0.219833 0.148649 1.015586 0.199741 -3.615384 89.915569 -3.198645 -5.753480 -22.226496 -2.491182 -6.927134 4.068449 1.124726 11.918314 -19.882000 0.000000 -0.000000 0.000000 1.858735 -8.503170 5.395513 2.047685 7.507434 13.851511 7.353074 -11.564279 -14.492249 0.000000 -0.000000 0.000000 4.754081 6.760482 10.797938 -17.816399 7.288983 -8.025730 -8.177445 6.139995 2.193596 -3.618640 -25.672951 -8.733641 0.495463 -6.208043 -9.341755 -12.288213 9.063002 -8.010916 -45.603032 7.062531 11.754101 14.145275 -48.961009 17.087925 -5.020033 -15.093575 -1.673892 -25.163860 10.814498 -19.374704 -18.953343 18.054976 -32.076238 -8.104268 4.842110 -21.653719 11.334021 1.055302 -1.432021 
0.220929 0.120680 1.011443 -1.564557 -3.406096 89.794233 -2.534812 -6.431856 -23.234397 -2.685112 -4.881416 6.103641 1.319869 12.588425 -20.035528 0.000000 -0.000000 0.000000 1.248234 -8.338845 6.557759 2.430090 8.385866 15.670985 8.055650 -10.116672 -14.875862 0.000000 -0.000000 0.000000 4.062890 7.659508 10.289707 -17.065010 7.182404 -7.106450 -8.030871 6.210457 1.927760 -3.295771 -25.473495 -9.734854 1.041482 -7.951758 -9.380799 -12.636489 8.651183 -8.158960 -45.355891 7.014472 11.567013 15.094607 -49.600551 15.117438 -4.829827 -14.824046 -1.077737 -22.892639 11.310520 -18.808428 -16.892088 18.121634 -30.250435 -9.284253 8.502264 -20.303190 11.486572 1.275173 0.473017 
0.223075 0.090927 1.006481 -3.531430 -3.248020 89.577825 -2.192322 -6.958693 -23.498287 -3.044942 -4.550730 9.027084 2.042987 12.827888 -19.826077 0.000000 -0.000000 0.000000 0.313646 -8.211167 7.344369 2.977997 9.139935 18.515059 8.990403 -8.408333 -15.055325 0.000000 -0.000000 0.000000 3.422107 8.580203 10.113864 -16.279385 7.179471 -6.481008 -7.811706 6.224855 1.715257 -3.320384 -24.733530 -10.796313 0.988858 -9.257628 -9.441664 -13.068982 8.252132 -8.273038 -44.980125 7.290396 11.352725 15.303016 -49.781098 14.236613 -4.532841 -14.608648 -0.085606 -20.661113 11.194445 -18.282332 -14.217386 17.401059 -27.355127 -11.449477 14.834574 -18.760663 11.306685 2.233633 0.864249 
0.226409 0.059086 1.001666 -5.333223 -3.234335 89.534708 -2.358423 -7.554080 -23.816785 -3.576504 -4.866733 13.136390 2.828735 12.522574 -16.855183 0.000000 -0.000000 0.000000 -0.692283 -7.701372 7.445965 3.406823 9.432996 22.199039 9.982320 -6.922929 -14.465031 0.000000 -0.000000 0.000000 2.777654 9.129712 9.706664 -15.458886 6.983451 -5.921255 -7.759292 6.224236 1.537617 -3.536906 -23.425900 -11.660307 0.797154 -9.768368 -9.775226 -13.760429 8.219067 -8.516966 -44.195763 8.025567 10.964205 15.084024 -49.806928 13.518773 -4.607558 -14.191952 1.723701 -18.063975 10.621417 -17.370558 -11.595317 16.233808 -24.241516 -15.089195 23.445277 -18.160173 10.294590 3.251387 2.095333 
0.230027 0.025579 0.999418 -6.216998 -3.561011 89.420147 -2.768577 -9.277483 -23.911663 -3.921858 -3.764862 16.857166 5.146818 12.844721 -14.224957 0.000000 -0.000000 0.000000 -1.871388 -6.851882 7.001583 3.897870 8.771034 26.777039 11.604654 -6.196789 -12.303776 0.000000 -0.000000 0.000000 1.843468 9.332062 9.333484 -14.598299 6.325727 -5.289718 -7.798699 5.933257 1.390802 -3.732211 -21.844334 -12.524048 0.345638 -9.740629 -10.043776 -14.723415 8.220391 -8.610788 -43.172852 8.728715 10.344328 14.892319 -49.181008 12.185230 -5.423573 -13.763659 4.385860 -15.054038 9.478854 -16.595343 -8.884893 15.047029 -20.911978 -20.717878 33.355317 -20.193186 9.210755 4.450125 4.046108 
0.233579 -0.008811 0.999535 -6.224386 -3.761083 88.916976 -3.585124 -10.252015 -22.797483 -4.326178 -2.866504 19.590995 7.724000 12.872013 -13.897431 0.000000 -0.000000 0.000000 -3.189038 -6.610464 5.867530 4.617057 6.969580 32.857765 13.696448 -5.820204 -7.600788 0.000000 -0.000000 0.000000 1.185078 9.094198 9.252850 -13.696366 5.528996 -4.925489 -7.727145 5.384737 1.709923 -3.935292 -20.380030 -13.385188 -0.496476 -9.402567 -10.226385 -15.733658 8.017243 -8.599584 -42.529204 9.307106 9.469450 14.699413 -47.993468 11.045833 -6.491957 -13.072455 7.744725 -12.297180 8.043948 -16.049460 -6.446444 13.657938 -17.726202 -27.199516 43.135485 -23.641072 8.191121 5.860397 6.072874 
0.237136 -0.041956 1.000388 -6.074913 -3.632693 88.262804 -4.541052 -10.022180 -20.881652 -4.740577 -3.071812 21.607528 9.402716 13.098479 -16.152594 0.000000 -0.000000 0.000000 -4.243309 -6.549220 3.436482 5.121930 4.613381 40.357196 14.891307 -6.554555 -0.037157 0.000000 -0.000000 0.000000 0.880518 8.306599 9.417645 -12.724963 4.969648 -4.676623 -7.504430 4.856685 1.952806 -4.228194 -19.485605 -14.028986 -1.271106 -8.711188 -10.484162 -16.749665 7.735465 -8.481341 -42.331927 9.936690 8.405124 14.397869 -47.467140 11.006354 -7.804909 -12.087643 11.921523 -9.874511 6.799883 -15.471945 -4.610300 12.039296 -15.015805 -35.521915 51.856853 -28.462953 7.965305 7.086615 8.698347 
0.240350 -0.073274 1.001220 -5.845549 -3.460834 87.622262 -5.351743 -9.791075 -18.490025 -5.298489 -3.668840 22.490497 10.929150 13.949232 -18.152980 0.000000 -0.000000 0.000000 -5.021114 -6.258482 0.190244 5.413570 2.272260 47.917990 13.810907 -9.356636 8.024602 0.000000 -0.000000 0.000000 0.649906 7.156856 9.648353 -11.715319 4.525863 -4.370448 -7.212532 4.287405 2.174471 -4.565981 -19.608456 -14.541947 -1.543162 -7.553866 -11.042900 -17.824938 7.531562 -8.215878 -42.069851 10.295135 7.463419 13.417309 -48.085560 11.610684 -8.329674 -11.392059 14.728209 -7.777686 5.594678 -14.969628 -3.004063 10.570480 -12.544684 -47.609674 59.008879 -37.506629 8.362191 8.208533 10.214318 
0.243174 -0.102833 1.002310 -5.342816 -3.365427 87.039596 -6.343583 -10.010720 -15.768265 -5.455012 -4.395191 22.469519 12.122976 14.970433 -19.697051 0.000000 -0.000000 0.000000 -5.702926 -5.800092 -3.397562 4.792514 -0.608336 54.661704 11.789577 -14.148154 11.763184 0.000000 -0.000000 0.000000 0.419115 5.833840 9.877494 -10.664922 4.100401 -4.138598 -6.922071 3.536102 2.549185 -4.593154 -20.056466 -15.235570 -1.822519 -6.805745 -11.363569 -18.764314 7.491709 -7.766810 -41.774996 9.839153 7.090096 11.888977 -49.118648 12.359618 -8.432499 -11.328229 15.238577 -5.944030 4.356837 -14.678640 -1.728232 9.468615 -9.820466 -62.916268 64.063901 -50.854345 8.492105 9.407363 10.353051 
0.245560 -0.130813 1.004190 -4.833233 -3.218865 86.531397 -7.463937 -9.644969 -12.831821 -5.179605 -5.696562 21.832253 12.547478 15.739387 -21.035170 0.000000 -0.000000 0.000000 -6.195856 -5.532491 -7.114888 2.665362 -3.406778 59.808476 9.149694 -18.491487 9.158983 0.000000 -0.000000 0.000000 0.427817 4.495786 10.136430 -9.800495 3.751099 -4.131994 -6.581773 2.676059 2.882998 -4.398046 -20.392678 -15.593369 -2.104816 -6.949879 -11.578913 -19.281093 7.249031 -7.169046 -41.542451 9.111706 7.079829 9.986440 -50.506651 13.852215 -8.809955 -11.423488 14.944316 -4.706651 3.475572 -14.545960 -0.578717 8.469166 -7.409450 -78.484752 67.406368 -65.354259 8.393224 10.677596 8.850228 
0.247105 -0.157493 1.006976 -4.623247 -2.911624 86.066809 -8.194358 -8.460652 -9.811419 -4.870885 -7.457809 20.767290 12.332864 16.135717 -22.100023 0.000000 -0.000000 0.000000 -6.349417 -5.186004 -10.721408 0.568532 -5.197693 62.556583 7.213073 -20.830560 5.697520 0.000000 -0.000000 0.000000 0.654962 3.046276 10.288258 -9.107162 3.499093 -4.157949 -6.131428 1.861138 3.117932 -4.021775 -20.924577 -15.456286 -2.001640 -7.422496 -12.159005 -19.309723 6.919314 -6.620264 -41.287105 8.427315 7.307657 8.021752 -52.860030 16.430097 -9.682956 -11.628120 14.823811 -4.424140 3.221328 -14.241148 0.397131 7.940665 -5.947251 -89.632713 69.353989 -76.748151 8.771332 11.921672 3.982840 
0.247654 -0.183294 1.010023 -4.632421 -2.477520 85.495400 -8.520332 -6.908496 -6.631530 -4.546022 -9.253110 19.396919 11.881127 16.390846 -22.966739 0.000000 -0.000000 0.000000 -6.157438 -4.572452 -13.866060 -0.026781 -5.945760 62.711303 6.646723 -21.106669 2.113387 0.000000 -0.000000 0.000000 0.890358 1.466408 10.463875 -8.435704 3.238380 -4.078265 -5.634753 1.288200 3.105857 -3.167198 -21.728544 -15.142137 -1.489647 -8.355114 -12.866457 -18.885466 6.465725 -6.152865 -40.587001 7.835817 7.768266 6.334967 -57.204050 19.765535 -10.134161 -11.933746 15.352496 -4.659830 3.662717 -13.748594 0.687813 7.825427 -5.788709 -94.581448 70.120832 -81.873460 8.571005 12.682597 1.627044 
0.247555 -0.207892 1.012318 -4.566687 -2.084945 84.955804 -8.709894 -5.355563 -3.506781 -4.116770 -10.944634 17.815688 11.254440 16.597512 -23.694797 0.000000 -0.000000 0.000000 -5.823745 -3.872389 -16.597764 0.114491 -6.284424 60.490930 7.225842 -20.271947 -2.404011 0.000000 -0.000000 0.000000 1.099564 -0.099533 10.727056 -7.879936 2.958694 -4.086530 -5.185807 0.866640 3.100172 -1.993385 -22.573671 -14.951932 -0.640587 -9.840777 -13.591495 -18.129357 5.941027 -5.921265 -39.103233 6.903906 8.580350 5.298235 -63.518467 22.748583 -8.884060 -12.622583 15.761738 -5.126170 4.146895 -13.729754 0.094741 8.016195 -6.692568 -94.811619 70.084178 -82.079099 6.549202 13.470149 2.633931 
